# xmcd
#
# Track frame offsets: 
#        150
#        10696
#        25570
#        50459
#        69659
#        83417
#        100476
#        111630
#        129194
#        148540
#        162162
#        169687
#        184648
#        198678
#        213935
#
# Disc length: 3079 seconds
#
# Revision: 0
# Processed by: cddbd v1.5.2PL0 Copyright (c) Steve Scherf et al.
# Submitted via: ExactAudioCopy v0.99pb5
#
DISCID=c40c050f
DTITLE=Usual Suspecta - Vol. 3
DYEAR=2009
DGENRE=Rap
TTITLE0=Immer noch (Bier, Weed,  etc.)
TTITLE1=Showtime
TTITLE2=Assi wie Toni
TTITLE3=Komm mit mir
TTITLE4=Was du brauchst (feat. Flonz)
TTITLE5=Herz aus Beton
TTITLE6=Und es regnet
TTITLE7=Fokusiert auf mich feat. D-Like
TTITLE8=Kiosk Music Anthem feat. Ben and Phigo
TTITLE9=Immer das Selbe
TTITLE10=Kein Land in Sicht
TTITLE11=Vertrau mir
TTITLE12=Nicht blieb wie es war feat. Osman Bey and Reis
TTITLE13=Und ich steck noch einen an
TTITLE14=Danke (du der groﬂ bist) feat. Flonz
EXTD=
EXTT0=
EXTT1=
EXTT2=
EXTT3=
EXTT4=
EXTT5=
EXTT6=
EXTT7=
EXTT8=
EXTT9=
EXTT10=
EXTT11=
EXTT12=
EXTT13=
EXTT14=
PLAYORDER=
